<?xml version="1.0" encoding="utf-8"?>
<!-- Generator: Adobe Illustrator 15.1.0, SVG Export Plug-In . SVG Version: 6.00 Build 0)  -->
<!DOCTYPE svg PUBLIC "-//W3C//DTD SVG 1.1//EN" "http://www.w3.org/Graphics/SVG/1.1/DTD/svg11.dtd">
<svg version="1.1" id="Layer_1" xmlns="http://www.w3.org/2000/svg" xmlns:xlink="http://www.w3.org/1999/xlink" x="0px" y="0px"
	 width="700px" height="1150px" viewBox="241.5 -101.5 700 1150" enable-background="new 241.5 -101.5 700 1150"
	 xml:space="preserve">
<g>
	<path fill="#999999" d="M633.223,267.223v190.668h182.8v82.218h-182.8v192.42h-85.716v-192.42h-182.8v-82.218h182.8V267.223
		H633.223L633.223,267.223z"/>
</g>
<g id="Layer_3">
	<g enable-background="new    ">
		<path d="M614.606,77.07v9.576l-18.72,10.439v9.36h18.72v9.216h-50.4V97.229c0-11.566,4.851-17.353,14.544-17.353
			c3.602,0,6.529,0.745,8.784,2.232c2.257,1.488,4.226,3.6,5.904,6.336L614.606,77.07z M571.91,99.318v7.129h15.336v-6.769
			c0-3.889-0.658-6.553-1.979-7.991c-1.319-1.44-3.276-2.16-5.868-2.16c-2.544,0-4.428,0.695-5.652,2.088
			S571.91,95.575,571.91,99.318z"/>
		<path d="M614.606,61.376v9.216h-50.4v-9.216H614.606z"/>
		<path d="M615.614,28.688c0,3.553-0.624,6.84-1.872,9.864c-1.247,3.023-3.022,5.627-5.328,7.812
			c-2.304,2.185-5.074,3.888-8.314,5.112c-3.24,1.224-6.828,1.836-10.766,1.836c-3.888,0-7.438-0.612-10.654-1.836
			c-3.216-1.226-5.964-2.939-8.244-5.148c-2.279-2.207-4.056-4.859-5.328-7.956c-1.271-3.097-1.908-6.491-1.908-10.188
			c0-1.198,0.072-2.508,0.216-3.924c0.146-1.415,0.351-2.808,0.612-4.176c0.265-1.368,0.576-2.664,0.938-3.889
			c0.358-1.224,0.756-2.269,1.188-3.131l8.784,1.008c-1.968,4.607-2.952,9.24-2.952,13.896c0,2.544,0.411,4.765,1.229,6.659
			c0.818,1.897,1.987,3.481,3.507,4.752c1.519,1.272,3.325,2.231,5.423,2.88c2.097,0.648,4.445,0.974,7.048,0.974
			c2.7,0,5.133-0.336,7.302-1.008c2.17-0.673,4.015-1.681,5.532-3.024c1.52-1.343,2.699-2.988,3.543-4.933
			c0.844-1.943,1.264-4.188,1.264-6.731c0-1.968-0.265-4.271-0.797-6.912h-9.065v5.544h-7.633v-14.76h22.465
			c0.527,0.863,1.02,1.992,1.476,3.384c0.457,1.394,0.864,2.894,1.224,4.5c0.36,1.608,0.637,3.24,0.828,4.896
			C615.518,25.844,615.614,27.345,615.614,28.688z"/>
		<path d="M614.606-39.711v9.216H592.79v23.761h21.816V2.48h-50.4v-9.215h19.656v-23.761h-19.656v-9.216H614.606z"/>
		<path d="M573.135-84.062v14.256h41.472v9.217h-41.472v14.256h-8.929v-37.729H573.135z"/>
	</g>
	<g enable-background="new    ">
		<path d="M614.606,1000.711v29.952h-50.4v-9.216h41.474v-20.736H614.606z"/>
		<path d="M614.606,961.688v32.976h-50.4v-32.256h8.93v22.824h10.728V967.52h8.928v17.712h12.89v-23.544H614.606z"/>
		<path d="M573.135,922.735v21.815h10.728v-16.848h8.928v16.848h21.816v9.217h-50.4v-31.032H573.135z"/>
		<path d="M573.135,882.704v14.256h41.472v9.216h-41.472v14.257h-8.929v-37.729H573.135z"/>
	</g>
</g>
<g id="Layer_4">
	<polygon fill="#999999" points="368,583 368,415 256.333,498.667 	"/>
	<polygon fill="#999999" points="814,415 814,583 925.666,499.333 	"/>
	<polygon fill="#999999" points="505.835,269 673.835,269 590.168,157.334 	"/>
	<polygon fill="#999999" points="673.837,731 505.837,731 589.504,842.666 	"/>
</g>
</svg>
