<?xml version="1.0" encoding="utf-8"?>
<!-- Generator: Adobe Illustrator 15.1.0, SVG Export Plug-In . SVG Version: 6.00 Build 0)  -->
<!DOCTYPE svg PUBLIC "-//W3C//DTD SVG 1.1//EN" "http://www.w3.org/Graphics/SVG/1.1/DTD/svg11.dtd">
<svg version="1.1" id="Layer_1" xmlns="http://www.w3.org/2000/svg" xmlns:xlink="http://www.w3.org/1999/xlink" x="0px" y="0px"
	 width="1231px" height="1000px" viewBox="0 0 1231 1000" enable-background="new 0 0 1231 1000" xml:space="preserve">
<g>
	<path fill="#999999" d="M633.223,267.223v190.669h182.799v82.217H633.223v192.42h-85.716v-192.42h-182.8v-82.217h182.8V267.223
		H633.223L633.223,267.223z"/>
</g>
<g id="Layer_3">
	<g enable-background="new    ">
		<path d="M1035.137,520h-9.576l-10.44-18.72h-9.36V520h-9.216v-50.4h18.433c11.566,0,17.352,4.85,17.352,14.544
			c0,3.601-0.745,6.529-2.232,8.784c-1.488,2.257-3.6,4.225-6.336,5.904L1035.137,520z M1012.889,477.304h-7.129v15.336h6.768
			c3.889,0,6.553-0.659,7.992-1.979c1.44-1.319,2.16-3.276,2.16-5.868c0-2.544-0.696-4.428-2.088-5.652
			C1019.199,477.916,1016.632,477.304,1012.889,477.304z"/>
		<path d="M1050.831,520h-9.216v-50.4h9.216V520z"/>
		<path d="M1083.52,521.008c-3.553,0-6.84-0.624-9.865-1.872c-3.023-1.247-5.627-3.023-7.812-5.328
			c-2.185-2.304-3.888-5.075-5.112-8.315c-1.224-3.24-1.836-6.828-1.836-10.765c0-3.888,0.612-7.439,1.836-10.655
			c1.225-3.216,2.939-5.964,5.148-8.244c2.207-2.279,4.859-4.056,7.956-5.328c3.097-1.271,6.491-1.908,10.188-1.908
			c1.199,0,2.508,0.072,3.924,0.216c1.415,0.145,2.808,0.35,4.176,0.612c1.368,0.265,2.664,0.576,3.889,0.937
			c1.223,0.359,2.268,0.756,3.131,1.188l-1.008,8.784c-4.607-1.968-9.24-2.952-13.896-2.952c-2.544,0-4.764,0.411-6.659,1.229
			c-1.897,0.819-3.481,1.988-4.752,3.507c-1.272,1.519-2.231,3.325-2.88,5.423c-0.648,2.097-0.973,4.445-0.973,7.048
			c0,2.7,0.336,5.133,1.008,7.302c0.672,2.17,1.68,4.014,3.024,5.532c1.343,1.519,2.988,2.699,4.933,3.543
			c1.943,0.844,4.188,1.264,6.731,1.264c1.968,0,4.271-0.265,6.912-0.797v-9.066h-5.544v-7.633h14.76v22.465
			c-0.863,0.528-1.992,1.02-3.384,1.476c-1.393,0.457-2.893,0.864-4.5,1.224c-1.608,0.36-3.24,0.636-4.896,0.828
			C1086.363,520.911,1084.862,521.008,1083.52,521.008z"/>
		<path d="M1151.918,520h-9.216v-21.816h-23.761V520h-9.215v-50.4h9.215v19.656h23.761V469.6h9.216V520z"/>
		<path d="M1196.27,478.528h-14.256V520h-9.217v-41.472h-14.256V469.6h37.729V478.528z"/>
	</g>
	<g enable-background="new    ">
		<path d="M72.496,520H42.544v-50.4h9.216v41.473h20.736V520z"/>
		<path d="M111.52,520H78.544v-50.4H110.8v8.929H87.976v10.728h17.712v8.928H87.976v12.889h23.544V520z"/>
		<path d="M150.472,478.528h-21.816v10.728h16.848v8.928h-16.848V520h-9.216v-50.4h31.032V478.528z"/>
		<path d="M190.503,478.528h-14.256V520h-9.216v-41.472h-14.256V469.6h37.728V478.528z"/>
	</g>
</g>
<g id="Layer_4">
	<polygon fill="#999999" points="368,583 368,415 256.333,498.667 	"/>
	<polygon fill="#999999" points="814,415 814,583 925.666,499.333 	"/>
	<polygon fill="#999999" points="505.835,269 673.835,269 590.168,157.334 	"/>
	<polygon fill="#999999" points="673.837,731 505.837,731 589.504,842.666 	"/>
</g>
</svg>
